<?xml version="1.0" standalone="no"?>
<!DOCTYPE svg PUBLIC "-//W3C//DTD SVG 20010904//EN"
 "http://www.w3.org/TR/2001/REC-SVG-20010904/DTD/svg10.dtd">
<svg version="1.0" xmlns="http://www.w3.org/2000/svg"
 width="1775.000000pt" height="1775.000000pt" viewBox="0 0 1775.000000 1775.000000"
 preserveAspectRatio="xMidYMid meet">
<metadata>
Created by potrace 1.11, written by Peter Selinger 2001-2013
</metadata>
<g transform="translate(0.000000,1775.000000) scale(0.100000,-0.100000)"
fill="#000000" stroke="none">
<path d="M8496 16033 c-3 -3 -25 -7 -48 -9 -24 -1 -54 -5 -68 -8 -30 -7 -66
-15 -100 -22 -14 -3 -32 -6 -40 -8 -8 -1 -35 -9 -60 -16 -25 -8 -47 -14 -50
-14 -3 -1 -12 -5 -20 -11 -8 -5 -28 -8 -44 -7 -16 2 -68 -8 -115 -21 -47 -14
-108 -30 -136 -37 -27 -6 -54 -13 -60 -15 -5 -1 -12 -3 -15 -3 -3 -1 -27 -8
-55 -17 -27 -8 -66 -18 -85 -21 -19 -3 -41 -11 -49 -17 -8 -7 -16 -11 -18 -9
-1 1 -4 2 -5 1 -2 -1 -14 -2 -28 -4 -25 -3 -281 -71 -310 -82 -8 -3 -18 -6
-21 -5 -4 1 -38 -8 -75 -19 -38 -10 -82 -22 -98 -25 -16 -2 -33 -7 -38 -10 -4
-3 -17 -7 -29 -9 -11 -2 -80 -20 -152 -40 -73 -20 -143 -39 -157 -41 -14 -3
-39 -9 -56 -15 -17 -5 -40 -11 -50 -13 -19 -4 -119 -30 -229 -61 -163 -45
-172 -47 -250 -65 -27 -6 -79 -19 -115 -30 -36 -10 -76 -21 -90 -24 -14 -3
-47 -12 -75 -20 -121 -35 -219 -60 -270 -70 -5 -1 -16 -5 -22 -9 -7 -5 -13 -6
-13 -3 0 3 -11 1 -25 -4 -14 -5 -38 -12 -53 -15 -45 -10 -47 -10 -60 -19 -7
-4 -16 -5 -19 -2 -3 3 -12 1 -20 -5 -7 -6 -13 -9 -13 -6 0 3 -15 1 -32 -5 -35
-10 -163 -46 -188 -52 -8 -2 -35 -10 -60 -17 -25 -6 -52 -13 -60 -15 -8 -1
-25 -5 -37 -8 -13 -3 -31 -8 -40 -10 -10 -2 -40 -12 -68 -21 -27 -10 -54 -18
-60 -20 -40 -9 -249 -113 -275 -137 -10 -10 -22 -18 -25 -18 -11 0 -122 -94
-177 -151 -63 -65 -119 -138 -163 -214 -46 -78 -84 -158 -85 -176 0 -8 -5 -20
-10 -25 -15 -15 -51 -189 -57 -274 -9 -141 -18 -7392 -9 -7450 18 -116 35
-182 74 -280 14 -36 35 -81 47 -100 12 -19 22 -39 23 -43 0 -5 9 -20 21 -33
11 -13 20 -27 20 -30 -1 -3 7 -16 17 -27 11 -12 26 -34 36 -48 18 -28 179
-189 188 -189 4 0 22 -13 40 -30 18 -16 39 -30 46 -30 7 0 17 -6 21 -13 9 -15
213 -121 213 -111 0 3 6 2 13 -4 11 -9 105 -40 132 -43 6 -1 20 -5 33 -10 12
-5 33 -11 45 -13 28 -5 127 -32 147 -40 8 -3 26 -8 40 -10 34 -7 141 -35 160
-43 8 -3 22 -7 30 -8 36 -7 313 -81 358 -95 18 -6 42 -13 55 -14 12 -2 29 -6
37 -9 8 -3 24 -7 35 -10 11 -2 74 -19 140 -37 160 -43 378 -101 390 -103 6 -2
16 -6 23 -10 6 -5 12 -6 12 -3 0 3 23 -2 52 -10 28 -9 59 -17 67 -19 9 -2 50
-13 91 -24 41 -11 129 -33 195 -51 66 -17 127 -33 135 -37 8 -3 22 -7 30 -9 8
-1 39 -9 68 -17 28 -8 52 -13 52 -10 0 3 6 0 13 -6 8 -6 17 -8 20 -4 4 3 13 1
21 -6 8 -6 18 -11 22 -10 5 1 16 -1 24 -4 8 -3 78 -23 155 -43 77 -20 165 -43
195 -51 30 -7 64 -16 75 -18 11 -3 94 -25 185 -50 91 -25 174 -47 185 -49 11
-2 46 -11 77 -20 37 -11 70 -15 94 -10 20 4 39 2 43 -3 8 -12 151 -53 185 -53
14 0 26 -3 26 -7 0 -5 10 -9 23 -9 12 -1 38 -4 57 -8 19 -4 105 -9 190 -11
210 -4 381 28 558 106 34 15 62 25 62 23 0 -3 12 4 26 15 15 11 30 18 35 15 5
-3 9 -1 9 4 0 10 37 25 53 23 5 -1 6 3 3 8 -4 5 4 13 16 17 13 3 43 18 68 33
25 14 47 27 50 27 33 10 50 18 50 26 0 5 4 7 9 4 5 -4 11 -2 13 2 1 4 35 23
73 42 39 19 81 42 94 52 13 10 27 15 32 12 5 -3 9 0 9 5 0 6 4 11 9 11 5 0 36
15 69 34 33 19 63 32 66 28 3 -3 6 0 6 7 0 7 5 9 10 6 6 -3 10 -1 10 5 0 6 5
8 10 5 6 -3 10 -3 10 2 0 4 33 24 73 43 39 19 74 37 77 40 3 3 23 14 45 25 22
11 43 24 47 30 4 5 8 6 8 1 0 -5 7 -3 15 4 8 7 15 9 15 5 0 -4 6 -3 13 3 11 9
85 49 262 141 39 20 72 38 75 41 3 3 37 21 75 40 39 19 72 38 75 41 3 3 21 11
40 19 19 7 42 19 50 26 8 6 47 28 87 48 39 19 74 40 78 45 3 6 12 8 20 4 8 -3
15 -1 15 5 0 5 20 18 45 29 25 10 45 22 45 26 0 5 5 5 10 2 6 -3 10 -1 10 6 0
7 3 10 6 6 4 -3 25 7 48 22 22 16 44 29 49 30 14 2 72 34 78 43 3 5 10 10 15
10 23 2 44 11 44 19 0 5 3 9 8 8 16 -2 52 14 52 24 0 6 3 8 6 5 3 -4 48 18
100 47 52 30 94 51 94 48 0 -3 8 0 18 8 9 8 60 37 112 64 52 27 96 52 98 57 2
4 11 8 21 8 9 0 22 5 29 12 7 7 12 8 12 2 0 -5 4 -4 8 2 11 16 139 83 146 77
3 -4 6 -2 6 4 0 5 18 18 40 28 22 10 40 22 40 27 0 4 6 8 14 8 8 0 47 17 88
38 40 22 123 65 183 97 61 31 125 66 143 77 17 11 32 16 32 11 0 -4 4 -3 8 3
8 13 109 66 132 70 8 2 20 11 28 21 7 10 15 17 18 15 7 -4 76 29 97 46 9 8 17
12 17 8 0 -3 18 5 40 19 22 14 44 25 50 25 5 0 10 5 10 10 0 6 7 10 15 10 8 0
15 5 15 12 0 6 3 9 6 5 5 -5 77 43 137 92 21 18 111 107 143 143 24 27 93 124
112 157 37 65 50 91 72 146 14 33 25 62 26 65 0 3 3 12 7 20 8 19 29 99 33
125 2 11 6 31 10 45 8 30 12 557 14 1633 l1 798 26 10 c14 5 28 7 31 5 2 -3
12 -1 21 3 9 5 34 12 56 15 22 4 56 11 75 16 19 5 46 11 60 14 14 2 25 5 25 6
0 2 76 20 105 25 8 1 22 5 30 8 8 3 29 9 45 13 17 4 37 9 45 11 8 2 22 5 30 5
8 0 21 5 28 11 6 5 12 7 12 3 0 -3 11 -1 25 4 24 9 58 17 95 24 8 1 22 6 31
10 9 4 20 6 25 5 5 -1 16 1 24 4 23 9 163 46 201 52 18 3 36 8 41 11 4 3 17 7
28 10 11 2 30 7 43 10 12 3 28 6 35 6 6 1 12 6 12 11 0 5 6 7 14 4 8 -3 17 2
21 11 3 8 6 208 6 443 0 317 -3 439 -12 471 -7 23 -14 48 -15 53 -5 36 -81
189 -118 239 -20 25 -36 48 -36 51 0 9 -51 55 -92 83 -117 80 -233 106 -418
96 -175 -10 -337 -45 -645 -141 -44 -14 -84 -26 -90 -27 -5 -2 -19 -6 -30 -10
-11 -5 -32 -12 -47 -18 -15 -5 -32 -7 -37 -3 -6 3 -11 1 -11 -6 0 -7 -3 -9 -7
-6 -3 4 -12 2 -19 -4 -8 -6 -21 -9 -29 -5 -8 3 -15 1 -15 -5 0 -6 -7 -9 -15
-5 -8 3 -15 2 -15 -3 0 -5 -15 -12 -32 -16 -18 -4 -40 -10 -48 -12 -8 -3 -23
-5 -32 -6 -10 -1 -18 -4 -18 -7 0 -4 -6 -7 -12 -8 -7 0 -31 -6 -53 -12 -22 -6
-47 -12 -55 -14 -8 -3 -28 -9 -43 -15 -15 -6 -31 -10 -35 -10 -4 1 -9 0 -12
-1 -3 -1 -12 -3 -20 -5 -8 -2 -44 -10 -80 -19 -36 -9 -74 -19 -85 -21 -11 -3
-31 -7 -45 -10 -83 -16 -113 -23 -120 -26 -3 -1 -9 -3 -15 -4 -5 -2 -12 -4
-15 -5 -3 -1 -12 -3 -20 -5 -8 -2 -51 -13 -95 -25 -44 -12 -89 -23 -100 -24
-11 -2 -27 -6 -36 -10 -9 -4 -27 -8 -40 -10 -13 -2 -31 -6 -39 -9 -8 -4 -26
-8 -40 -11 -14 -2 -43 -9 -65 -14 -22 -6 -56 -14 -75 -17 -19 -4 -39 -8 -45
-9 -5 -1 -16 -5 -22 -9 -7 -5 -13 -6 -13 -3 0 2 -15 0 -32 -5 -18 -6 -42 -12
-53 -14 -66 -15 -99 -23 -102 -25 -5 -4 -18 -7 -70 -15 -29 -4 -53 -11 -53
-15 0 -5 -8 -7 -17 -5 -10 1 -29 -2 -43 -7 -14 -5 -34 -12 -45 -14 -38 -7
-120 -27 -135 -32 -8 -2 -26 -7 -40 -9 -46 -8 -55 -10 -70 -16 -13 -5 -164
-44 -195 -51 -5 -1 -16 -5 -22 -9 -7 -5 -13 -6 -13 -2 0 3 -16 -1 -35 -9 -20
-9 -38 -15 -40 -15 -11 1 -71 -14 -80 -19 -5 -4 -14 -7 -20 -8 -29 -5 -150
-38 -220 -61 -44 -14 -86 -26 -92 -26 -7 0 -13 -4 -13 -9 0 -5 -4 -6 -10 -3
-5 3 -16 3 -22 -2 -7 -4 -17 -8 -23 -9 -5 -1 -50 -14 -100 -29 -49 -15 -101
-29 -115 -32 -14 -2 -32 -7 -40 -9 -8 -3 -15 -4 -15 -2 -1 2 -13 -5 -28 -15
-15 -9 -27 -15 -27 -11 0 4 -7 1 -15 -6 -9 -7 -18 -10 -21 -7 -3 3 -22 -1 -42
-10 -32 -13 -44 -17 -87 -26 -5 -2 -15 -5 -20 -9 -6 -3 -39 -14 -75 -23 -36
-9 -98 -27 -139 -41 -40 -14 -82 -26 -92 -27 -11 -1 -19 -4 -19 -8 0 -4 -12
-9 -27 -12 -16 -3 -41 -11 -58 -18 -16 -7 -37 -13 -45 -15 -8 -2 -16 -8 -18
-14 -2 -5 -8 -7 -14 -4 -6 4 -13 3 -17 -2 -3 -5 -30 -22 -60 -38 -30 -16 -84
-50 -119 -74 -73 -51 -228 -203 -237 -233 -4 -10 -10 -19 -14 -19 -9 0 -35
-51 -33 -62 1 -5 -2 -8 -6 -8 -13 0 -64 -117 -77 -179 -3 -12 -8 -31 -11 -43
-3 -13 -8 -36 -11 -53 -7 -38 -9 -302 -3 -309 11 -10 102 -21 335 -40 39 -3
88 -8 110 -11 90 -10 153 -16 205 -20 71 -4 173 -14 230 -21 25 -4 68 -8 95
-10 28 -1 77 -6 110 -9 33 -4 78 -8 100 -10 63 -5 197 -17 230 -20 17 -2 71
-6 120 -10 50 -3 106 -8 125 -11 53 -7 138 -15 205 -20 33 -2 83 -6 110 -9 28
-2 79 -6 115 -9 36 -2 92 -7 125 -10 33 -3 81 -7 107 -8 46 -3 48 -4 49 -33 4
-202 0 -827 -5 -850 -4 -16 -8 -39 -10 -50 -1 -11 -5 -26 -9 -32 -5 -7 -5 -17
-2 -23 3 -5 1 -10 -4 -10 -6 0 -11 -6 -11 -13 0 -7 -11 -37 -25 -65 -14 -29
-25 -56 -25 -62 0 -5 -4 -10 -10 -10 -5 0 -10 -4 -10 -9 0 -31 -124 -175 -195
-227 -22 -16 -48 -36 -57 -45 -22 -19 -159 -88 -186 -94 -11 -2 -34 -11 -51
-19 -17 -9 -31 -14 -31 -12 0 4 -161 -50 -210 -71 -8 -3 -17 -7 -20 -8 -69
-22 -126 -39 -130 -40 -3 0 -18 -5 -35 -12 -29 -11 -65 -23 -75 -25 -3 -1 -54
-19 -115 -40 -60 -22 -121 -41 -134 -44 -13 -3 -33 -10 -43 -15 -11 -6 -32
-13 -46 -15 -15 -3 -29 -9 -30 -15 -2 -5 -8 -7 -13 -4 -4 3 -22 -1 -39 -10
-16 -8 -30 -13 -30 -10 0 3 -17 -2 -37 -11 -21 -8 -45 -17 -53 -19 -15 -4 -60
-19 -115 -39 -16 -6 -33 -10 -37 -8 -5 1 -8 -2 -8 -8 0 -6 -3 -9 -7 -8 -18 4
-83 -15 -83 -24 0 -5 -5 -6 -10 -3 -6 4 -17 1 -25 -5 -8 -7 -21 -10 -29 -7 -8
3 -16 2 -18 -4 -2 -5 -12 -11 -23 -13 -11 -2 -44 -13 -72 -25 -29 -11 -53 -18
-53 -15 0 4 -7 1 -15 -6 -8 -6 -19 -9 -25 -5 -5 3 -10 2 -10 -4 0 -5 -15 -13
-32 -16 -18 -4 -38 -12 -45 -17 -7 -5 -17 -7 -22 -4 -5 4 -12 2 -16 -4 -4 -6
-10 -8 -15 -5 -5 3 -11 1 -15 -5 -3 -5 -13 -10 -21 -10 -8 0 -31 -7 -52 -16
-20 -10 -43 -18 -51 -20 -8 -1 -25 -5 -38 -9 -13 -3 -26 -6 -30 -6 -5 0 -12
-4 -18 -9 -10 -7 -87 -34 -92 -32 -2 1 -19 -6 -40 -14 -20 -9 -44 -17 -52 -19
-17 -3 -105 -32 -131 -42 -8 -3 -19 -7 -25 -9 -5 -1 -50 -16 -100 -34 -49 -17
-94 -32 -100 -33 -5 -2 -14 -5 -20 -8 -5 -4 -23 -10 -40 -14 -37 -10 -34 -9
-68 -23 -16 -7 -32 -12 -37 -12 -4 0 -21 -7 -36 -15 -16 -8 -36 -15 -45 -15
-9 0 -19 -3 -23 -7 -4 -5 -12 -9 -17 -9 -5 -1 -10 -2 -11 -3 -2 -2 -14 -4 -27
-7 -13 -2 -43 -13 -67 -24 -24 -10 -44 -16 -44 -13 0 3 -7 0 -15 -7 -8 -7 -15
-9 -15 -5 0 4 -6 3 -12 -2 -7 -5 -33 -15 -58 -22 -25 -7 -54 -18 -65 -23 -12
-5 -27 -10 -35 -12 -18 -4 -49 -15 -70 -25 -8 -4 -24 -7 -35 -6 -20 0 -20 6
-19 3260 1 1793 3 3339 5 3435 l4 175 485 3 c267 1 598 2 735 1 1374 -5 2694
-4 2724 2 100 21 114 25 194 65 85 43 207 138 207 163 0 4 9 16 21 27 18 16
67 109 94 179 34 87 18 329 -26 381 -6 8 -8 14 -5 14 4 0 -2 13 -13 29 -12 16
-21 32 -21 36 0 7 -63 87 -91 116 -36 36 -129 99 -214 143 -49 26 -94 52 -99
57 -6 5 -18 9 -27 9 -10 0 -19 3 -21 8 -1 4 -30 20 -63 37 -33 16 -71 38 -84
47 -13 10 -32 18 -42 18 -9 0 -19 4 -21 8 -3 8 -66 42 -328 180 -58 30 -136
73 -175 95 -38 21 -74 40 -80 41 -5 1 -17 6 -25 11 -16 10 -73 40 -165 88 -33
17 -67 36 -75 43 -8 7 -18 13 -22 14 -12 2 -71 29 -103 48 -68 41 -205 112
-205 107 0 -3 -9 3 -21 14 -12 11 -33 22 -47 26 -15 4 -29 10 -32 14 -3 4 -27
19 -55 33 -27 14 -75 38 -105 55 -58 31 -77 41 -125 65 -16 9 -55 29 -85 45
-155 85 -310 163 -355 178 -73 25 -191 55 -239 61 -22 3 -59 8 -81 11 -62 8
-262 13 -269 6z"/>
<path d="M1031 2574 l-1 -552 7854 0 c7308 0 7854 1 7858 16 2 10 4 38 3 65 0
32 3 47 12 47 9 0 13 -18 13 -59 0 -43 4 -60 15 -65 12 -4 15 6 15 62 1 85 1
841 0 946 l0 79 -34 -6 c-22 -3 -36 -1 -39 6 -4 14 -179 19 -187 6 -8 -13 -55
-16 -53 -4 2 13 -176 14 -194 2 -7 -5 -18 -5 -25 -1 -7 4 -8 3 -4 -4 4 -7 1
-12 -7 -12 -8 0 -17 6 -20 14 -4 10 -26 13 -94 10 -48 -1 -103 -6 -120 -9 -19
-4 -33 -3 -33 2 0 16 -169 14 -208 -3 -30 -12 -37 -12 -44 -1 -5 10 -33 14
-103 15 -52 0 -95 -3 -95 -7 0 -16 -43 -20 -57 -6 -10 11 -38 14 -100 14 -104
-1 -118 -11 -118 -81 0 -27 -2 -48 -6 -48 -11 0 -16 23 -14 72 2 57 -1 59
-109 57 -77 -1 -113 -10 -127 -32 -8 -12 -31 1 -24 13 15 24 -166 28 -199 5
-23 -17 -50 -20 -41 -6 9 15 -24 21 -105 19 -76 -1 -110 -12 -110 -35 0 -7 -6
-13 -14 -13 -8 0 -12 8 -9 23 5 23 3 24 -82 25 -60 2 -95 -3 -115 -13 -35 -18
-51 -19 -47 -2 3 15 -192 20 -210 5 -7 -5 -16 -7 -22 -4 -5 3 -11 1 -13 -6 -4
-10 -9 -9 -21 3 -12 12 -37 16 -106 17 -57 0 -91 -4 -91 -10 0 -6 -9 -8 -20
-5 -11 3 -18 1 -14 -4 3 -5 -2 -9 -10 -9 -9 0 -16 6 -16 14 0 11 -19 13 -92
10 -51 -2 -104 -4 -118 -4 -14 0 -65 0 -115 0 -49 0 -103 0 -120 0 -16 0 -74
2 -127 5 -60 2 -98 1 -98 -5 0 -6 -13 -10 -30 -10 -16 0 -30 4 -30 9 0 5 -39
9 -87 9 -87 0 -143 -12 -143 -30 0 -5 -6 -8 -12 -5 -7 2 -13 10 -13 18 0 11
-20 14 -95 15 -99 1 -130 -8 -130 -38 0 -23 -20 -23 -21 0 -1 9 -1 20 0 25 1
10 -1 10 -106 12 -51 1 -93 -2 -93 -6 0 -12 -47 -12 -54 -1 -7 12 -178 12
-193 0 -7 -5 -18 -6 -24 -2 -8 4 -9 3 -5 -4 10 -17 -13 -15 -29 2 -11 10 -39
14 -105 13 -49 0 -90 -5 -90 -9 0 -10 -44 -11 -54 -1 -11 12 -186 14 -186 3 0
-6 -7 -10 -15 -10 -8 0 -15 -4 -15 -10 0 -5 -7 -10 -16 -10 -10 0 -14 6 -11
14 3 8 0 16 -6 19 -24 9 -197 4 -197 -6 0 -5 -9 -7 -20 -4 -11 3 -18 1 -14 -4
3 -5 1 -9 -5 -9 -5 0 -11 6 -13 13 -5 14 -189 21 -198 7 -3 -5 -18 -12 -34
-16 -20 -5 -27 -3 -22 4 3 6 -2 13 -11 16 -30 8 -173 4 -173 -5 0 -5 -11 -9
-25 -9 -14 0 -25 4 -25 8 0 4 -40 8 -90 9 -49 0 -90 -3 -90 -8 0 -5 -7 -9 -15
-9 -8 0 -15 -4 -15 -10 0 -5 -6 -10 -14 -10 -8 0 -13 8 -12 18 1 15 -10 17
-99 19 -94 1 -131 -7 -146 -30 -8 -12 -31 1 -24 14 8 11 7 11 -95 14 -59 2
-91 -2 -105 -11 -22 -16 -49 -19 -40 -5 3 5 -3 12 -12 14 -31 8 -183 5 -183
-4 0 -5 -7 -9 -15 -9 -8 0 -15 -4 -15 -10 0 -5 -6 -10 -14 -10 -8 0 -13 8 -12
18 1 15 -10 17 -89 18 -62 1 -96 -3 -110 -12 -25 -18 -45 -18 -45 0 0 20 -133
19 -183 -2 -34 -14 -39 -14 -50 1 -10 12 -29 15 -102 13 -90 -3 -125 -10 -125
-27 0 -5 -4 -9 -10 -9 -5 0 -10 7 -10 15 0 18 5 17 -100 20 -58 2 -94 -2 -112
-11 -31 -16 -52 -18 -43 -4 3 5 -4 12 -17 14 -41 9 -172 0 -197 -13 -19 -11
-25 -11 -32 0 -6 10 -35 14 -103 15 -80 2 -97 -1 -115 -17 -25 -24 -43 -24
-39 -1 3 15 -8 17 -94 19 -54 1 -98 -3 -98 -8 0 -5 -9 -9 -20 -9 -11 0 -20 -5
-20 -11 0 -6 -6 -9 -12 -6 -7 2 -13 10 -13 18 0 11 -19 14 -90 14 -50 1 -92
-2 -95 -6 -3 -4 -18 -11 -33 -14 -21 -6 -27 -4 -25 6 2 11 -16 14 -84 15 -72
1 -91 -2 -107 -18 -24 -22 -45 -24 -37 -3 3 10 -2 16 -17 19 -32 7 -169 1
-189 -8 -10 -5 -31 -4 -46 2 -39 13 -192 9 -219 -6 -26 -15 -46 -16 -38 -2 8
12 9 12 -103 15 -50 2 -90 0 -87 -5 9 -14 -39 -20 -50 -7 -6 9 -36 14 -85 15
-80 1 -130 -12 -130 -34 0 -23 -18 -16 -22 9 -3 21 -8 22 -88 23 -56 0 -92 -4
-105 -13 -25 -17 -49 -17 -42 0 4 11 -15 14 -91 15 -53 0 -101 -3 -107 -7 -21
-17 -56 -23 -53 -9 2 9 -19 13 -87 15 -49 1 -94 -2 -100 -7 -6 -5 -24 -6 -40
-3 -31 5 -174 7 -211 2 -14 -2 -20 -8 -16 -18 3 -8 0 -12 -7 -10 -7 3 -12 8
-11 13 3 17 -24 24 -104 24 -75 1 -136 -13 -136 -30 0 -5 -7 -8 -15 -8 -10 0
-15 7 -13 18 3 15 -8 17 -89 20 -58 2 -93 0 -93 -7 0 -11 -58 -12 -65 -1 -8
12 -205 12 -205 0 0 -5 -7 -10 -15 -10 -14 0 -19 -11 -16 -37 1 -7 -4 -13 -11
-13 -8 0 -13 12 -13 33 l0 32 -75 3 c-42 2 -92 -2 -113 -9 -30 -10 -43 -10
-58 -1 -22 14 -186 16 -191 3 -1 -5 -16 -13 -31 -16 -21 -6 -27 -4 -25 6 4 20
-146 23 -183 3 -35 -18 -49 -18 -49 -1 0 21 -145 21 -188 1 -29 -13 -34 -13
-47 0 -11 11 -37 14 -97 14 -46 -1 -85 -5 -88 -9 -9 -13 -64 -24 -56 -11 4 7
-6 13 -26 16 -54 8 -172 4 -185 -6 -7 -5 -17 -7 -23 -3 -5 3 -10 1 -10 -4 0
-16 -27 -13 -33 2 -4 11 -26 13 -94 10 -111 -4 -123 -5 -117 -15 3 -4 -2 -8
-10 -8 -9 0 -16 6 -16 13 0 15 -166 18 -188 4 -7 -5 -25 -5 -40 -1 -38 11
-202 13 -202 2 0 -4 -11 -8 -25 -8 -14 0 -25 4 -25 9 0 13 -172 7 -197 -7 -28
-15 -44 -15 -40 0 4 20 -171 20 -206 -1 -24 -14 -29 -14 -37 -1 -11 17 -157
23 -177 7 -7 -5 -20 -7 -28 -3 -8 3 -15 1 -15 -4 0 -6 -5 -10 -11 -10 -5 0 -7
5 -4 10 8 12 4 13 -97 15 -52 1 -92 -3 -108 -12 -32 -16 -40 -16 -40 1 0 10
-20 13 -87 12 -49 0 -93 -4 -98 -8 -6 -3 -26 -4 -45 -1 -61 8 -195 10 -205 3
-21 -15 -56 -18 -61 -6 -3 8 -31 12 -84 12 l-79 1 0 -553z"/>
</g>
</svg>
